<svg width="41" height="38" viewBox="0 0 41 38" fill="none" xmlns="http://www.w3.org/2000/svg">
<path d="M7.46449 0.882C7.70046 0.605391 7.99339 0.383319 8.32312 0.231062C8.65286 0.0788044 9.01158 -2.39417e-05 9.3746 5.4545e-09H30.8382C31.2012 -2.39417e-05 31.5599 0.0788044 31.8896 0.231062C32.2194 0.383319 32.5123 0.605391 32.7483 0.882L39.3055 8.55288C39.8909 9.2379 40.2127 10.1103 40.2128 11.0124V11.655C40.2129 12.9023 39.8244 14.1186 39.1014 15.1337C38.3785 16.1488 37.3573 16.912 36.1806 17.3168C35.0039 17.7216 33.7305 17.7476 32.5383 17.3912C31.3461 17.0348 30.2948 16.3139 29.5312 15.3292C28.9738 16.0494 28.2592 16.6322 27.4424 17.0327C26.6256 17.4333 25.7281 17.641 24.8188 17.64C23.9095 17.641 23.0121 17.4333 22.1952 17.0327C21.3784 16.6322 20.6639 16.0494 20.1064 15.3292C19.5489 16.0494 18.8344 16.6322 18.0175 17.0327C17.2007 17.4333 16.3032 17.641 15.3939 17.64C14.4847 17.641 13.5872 17.4333 12.7704 17.0327C11.9535 16.6322 11.239 16.0494 10.6815 15.3292C9.91795 16.3139 8.86662 17.0348 7.67445 17.3912C6.48228 17.7476 5.20885 17.7216 4.03215 17.3168C2.85544 16.912 1.83426 16.1488 1.11134 15.1337C0.38841 14.1186 -0.000137222 12.9023 3.63537e-08 11.655V11.0124C3.16865e-05 10.1103 0.321844 9.2379 0.907301 8.55288L7.46449 0.882ZM11.9382 11.655C11.9382 12.574 12.3023 13.4553 12.9503 14.1051C13.5984 14.7549 14.4774 15.12 15.3939 15.12C16.3105 15.12 17.1895 14.7549 17.8376 14.1051C18.4856 13.4553 18.8497 12.574 18.8497 11.655C18.8497 11.3208 18.9821 11.0003 19.2178 10.764C19.4535 10.5277 19.7731 10.395 20.1064 10.395C20.4397 10.395 20.7593 10.5277 20.995 10.764C21.2306 11.0003 21.363 11.3208 21.363 11.655C21.363 12.574 21.7271 13.4553 22.3752 14.1051C23.0233 14.7549 23.9023 15.12 24.8188 15.12C25.7353 15.12 26.6143 14.7549 27.2624 14.1051C27.9105 13.4553 28.2746 12.574 28.2746 11.655C28.2746 11.3208 28.407 11.0003 28.6427 10.764C28.8783 10.5277 29.198 10.395 29.5312 10.395C29.8645 10.395 30.1842 10.5277 30.4198 10.764C30.6555 11.0003 30.7879 11.3208 30.7879 11.655C30.7879 12.574 31.152 13.4553 31.8001 14.1051C32.4482 14.7549 33.3272 15.12 34.2437 15.12C35.1602 15.12 36.0392 14.7549 36.6873 14.1051C37.3354 13.4553 37.6995 12.574 37.6995 11.655V11.0124C37.6995 10.7121 37.5925 10.4216 37.3979 10.1934L30.8382 2.52H9.3746L2.81489 10.1934C2.62023 10.4216 2.51327 10.7121 2.5133 11.0124V11.655C2.5133 12.574 2.87739 13.4553 3.52547 14.1051C4.17356 14.7549 5.05255 15.12 5.96908 15.12C6.88561 15.12 7.76461 14.7549 8.41269 14.1051C9.06078 13.4553 9.42487 12.574 9.42487 11.655C9.42487 11.3208 9.55726 11.0003 9.79293 10.764C10.0286 10.5277 10.3482 10.395 10.6815 10.395C11.0148 10.395 11.3344 10.5277 11.5701 10.764C11.8058 11.0003 11.9382 11.3208 11.9382 11.655ZM3.76995 18.9C4.10323 18.9 4.42286 19.0327 4.65853 19.269C4.8942 19.5053 5.0266 19.8258 5.0266 20.16V35.28H35.1862V20.16C35.1862 19.8258 35.3186 19.5053 35.5542 19.269C35.7899 19.0327 36.1095 18.9 36.4428 18.9C36.7761 18.9 37.0957 19.0327 37.3314 19.269C37.5671 19.5053 37.6995 19.8258 37.6995 20.16V35.28H38.9561C39.2894 35.28 39.609 35.4127 39.8447 35.649C40.0804 35.8853 40.2128 36.2058 40.2128 36.54C40.2128 36.8742 40.0804 37.1947 39.8447 37.431C39.609 37.6672 39.2894 37.8 38.9561 37.8H1.25665C0.923365 37.8 0.603731 37.6672 0.368064 37.431C0.132397 37.1947 3.63537e-08 36.8742 3.63537e-08 36.54C3.63537e-08 36.2058 0.132397 35.8853 0.368064 35.649C0.603731 35.4127 0.923365 35.28 1.25665 35.28H2.5133V20.16C2.5133 19.8258 2.64569 19.5053 2.88136 19.269C3.11703 19.0327 3.43666 18.9 3.76995 18.9ZM8.79654 20.16C9.12983 20.16 9.44946 20.2927 9.68513 20.529C9.92079 20.7653 10.0532 21.0858 10.0532 21.42V30.24H30.1596V21.42C30.1596 21.0858 30.292 20.7653 30.5276 20.529C30.7633 20.2927 31.0829 20.16 31.4162 20.16C31.7495 20.16 32.0691 20.2927 32.3048 20.529C32.5405 20.7653 32.6729 21.0858 32.6729 21.42V30.24C32.6729 30.9083 32.4081 31.5493 31.9367 32.0219C31.4654 32.4945 30.8261 32.76 30.1596 32.76H10.0532C9.38662 32.76 8.74736 32.4945 8.27602 32.0219C7.80469 31.5493 7.53989 30.9083 7.53989 30.24V21.42C7.53989 21.0858 7.67229 20.7653 7.90796 20.529C8.14362 20.2927 8.46326 20.16 8.79654 20.16Z" fill="#5C3D2E"/>
</svg>
