<svg width="40" height="37" viewBox="0 0 40 37" fill="none" xmlns="http://www.w3.org/2000/svg">
<path d="M21.8852 0.785418C21.3851 0.282515 20.707 0 20 0C19.293 0 18.6149 0.282515 18.1148 0.785418L0.390985 18.6137C0.267027 18.7384 0.168699 18.8865 0.101614 19.0494C0.0345284 19.2124 0 19.387 0 19.5633C0 19.7397 0.0345284 19.9143 0.101614 20.0773C0.168699 20.2402 0.267027 20.3883 0.390985 20.513C0.641328 20.7648 0.980866 20.9063 1.33491 20.9063C1.51021 20.9063 1.68379 20.8716 1.84575 20.8041C2.00771 20.7366 2.15487 20.6377 2.27883 20.513L4.00135 18.7774V32.9762C4.00135 34.0433 4.42274 35.0668 5.17282 35.8214C5.9229 36.5761 6.94023 37 8.00101 37H31.999C33.0598 37 34.0771 36.5761 34.8272 35.8214C35.5773 35.0668 35.9987 34.0433 35.9987 32.9762V18.7774L37.7212 20.513C37.9715 20.7648 38.3111 20.9063 38.6651 20.9063C39.0191 20.9063 39.3587 20.7648 39.609 20.513C39.8594 20.2611 40 19.9195 40 19.5633C40 19.2072 39.8594 18.8656 39.609 18.6137L33.3322 12.3017V3.46798C33.3322 3.11225 33.1917 2.77109 32.9417 2.51955C32.6917 2.26801 32.3526 2.1267 31.999 2.1267H29.3325C28.979 2.1267 28.6398 2.26801 28.3898 2.51955C28.1398 2.77109 27.9993 3.11225 27.9993 3.46798V6.93653L21.8852 0.785418ZM33.3322 16.0948V32.9762C33.3322 33.3319 33.1917 33.673 32.9417 33.9246C32.6917 34.1761 32.3526 34.3174 31.999 34.3174H8.00101C7.64742 34.3174 7.30831 34.1761 7.05828 33.9246C6.80825 33.673 6.66779 33.3319 6.66779 32.9762V16.0948L20 2.68199L33.3322 16.0948Z" fill="#5C3D2E"/>
</svg>
