<svg width="47" height="38" viewBox="0 0 47 38" fill="none" xmlns="http://www.w3.org/2000/svg">
<path d="M41.25 32.25H36.75V12.5625L23.25 21L9.75 12.5625V32.25H5.25V5.25H7.95L23.25 14.8125L38.55 5.25H41.25M41.25 0.75H5.25C2.7525 0.75 0.75 2.7525 0.75 5.25V32.25C0.75 33.4435 1.22411 34.5881 2.06802 35.432C2.91193 36.2759 4.05653 36.75 5.25 36.75H41.25C42.4435 36.75 43.5881 36.2759 44.432 35.432C45.2759 34.5881 45.75 33.4435 45.75 32.25V5.25C45.75 2.7525 43.725 0.75 41.25 0.75Z" fill="white"/>
<path d="M41.25 32.25H36.75V12.5625L23.25 21L9.75 12.5625V32.25H5.25V5.25H7.95L23.25 14.8125L38.55 5.25H41.25M41.25 0.75H5.25C2.7525 0.75 0.75 2.7525 0.75 5.25V32.25C0.75 33.4435 1.22411 34.5881 2.06802 35.432C2.91193 36.2759 4.05653 36.75 5.25 36.75H41.25C42.4435 36.75 43.5881 36.2759 44.432 35.432C45.2759 34.5881 45.75 33.4435 45.75 32.25V5.25C45.75 2.7525 43.725 0.75 41.25 0.75Z" stroke="white" stroke-width="1.5"/>
</svg>
